<?xml version="1.0" standalone="no"?>
<!DOCTYPE svg PUBLIC "-//W3C//DTD SVG 20010904//EN"
 "http://www.w3.org/TR/2001/REC-SVG-20010904/DTD/svg10.dtd">
<svg version="1.0" xmlns="http://www.w3.org/2000/svg"
 width="150.000000pt" height="150.000000pt" viewBox="0 0 150.000000 150.000000"
 preserveAspectRatio="xMidYMid meet">
<metadata>
Created by potrace 1.11, written by Peter Selinger 2001-2013
</metadata>
<g transform="translate(0.000000,150.000000) scale(0.100000,-0.100000)"
fill="#000000" stroke="none">
<path d="M0 1440 l0 -60 51 0 c39 0 50 3 46 13 -3 9 8 18 29 26 19 7 32 17 29
22 -4 5 11 9 33 9 24 0 45 6 53 16 7 9 22 20 34 24 12 5 -40 9 -127 9 l-148 1
0 -60z"/>
<path d="M850 1496 c0 -7 192 -25 320 -31 69 -3 171 -8 228 -11 l102 -7 0 27
0 26 -325 0 c-179 0 -325 -2 -325 -4z"/>
<path d="M45 1360 c-3 -5 3 -10 14 -10 12 0 21 5 21 10 0 6 -6 10 -14 10 -8 0
-18 -4 -21 -10z"/>
<path d="M1085 1250 c5 -16 2 -20 -14 -20 -31 0 -28 -43 4 -64 14 -9 30 -14
36 -10 6 3 13 -3 16 -15 3 -12 10 -21 15 -21 7 0 6 -5 -1 -13 -8 -11 -3 -16
24 -27 19 -8 35 -17 35 -22 0 -11 51 -10 69 1 13 8 13 14 2 38 -8 16 -16 23
-18 16 -8 -22 -23 -14 -23 12 0 14 -4 33 -9 43 -6 9 -13 34 -16 55 -6 38 -13
45 -32 26 -8 -8 -19 -6 -41 5 -42 22 -55 20 -47 -4z"/>
<path d="M855 1202 c-16 -2 -34 -8 -40 -14 -7 -8 -4 -9 9 -4 10 3 24 2 31 -4
9 -7 16 -6 25 5 16 19 13 21 -25 17z"/>
<path d="M898 1176 c-23 -17 -23 -28 3 -44 16 -11 19 -19 14 -45 -4 -18 -12
-38 -19 -46 -9 -12 -8 -13 7 -8 9 3 17 2 17 -2 0 -5 -25 -19 -55 -32 -30 -12
-52 -26 -49 -31 3 -5 11 -4 18 1 7 6 40 10 74 9 53 -1 60 -4 49 -16 -10 -13
-8 -15 18 -10 17 3 39 2 50 -2 16 -6 13 -9 -20 -14 -22 -4 -58 -11 -79 -16
-22 -5 -44 -6 -49 -3 -6 3 -7 1 -3 -5 3 -6 2 -13 -4 -17 -5 -3 -10 2 -10 11 0
16 -1 16 -18 1 -10 -10 -26 -17 -36 -17 -9 0 -21 -10 -26 -22 -5 -13 -9 -17
-9 -10 -1 7 -5 10 -11 7 -24 -15 -9 54 18 80 l27 28 -28 -5 c-24 -5 -27 -3
-21 16 6 20 5 19 -15 -3 -11 -13 -21 -32 -21 -42 0 -10 -5 -21 -10 -24 -22
-14 3 70 32 106 23 29 28 41 20 55 -9 16 -12 13 -26 -20 -9 -21 -16 -42 -16
-47 0 -5 -4 -9 -9 -9 -10 0 -37 -60 -33 -76 1 -7 -3 -12 -10 -11 -38 1 -50 -4
-44 -18 4 -12 -3 -15 -37 -15 -32 0 -48 -6 -62 -22 -11 -13 -20 -26 -20 -29 0
-16 -37 -40 -53 -35 -13 4 -25 -3 -41 -25 -13 -17 -29 -28 -36 -25 -24 9 -46
-41 -50 -116 -2 -42 0 -77 6 -85 6 -7 9 -18 6 -25 -4 -8 -6 -7 -6 5 -1 9 -5
17 -9 17 -4 0 -6 -15 -4 -33 3 -24 -2 -38 -18 -52 -14 -12 -19 -14 -15 -4 3 8
7 82 9 164 2 83 7 160 11 173 4 12 3 22 -2 22 -17 0 -63 -40 -63 -55 0 -7 -7
-18 -16 -25 -12 -11 -15 -11 -12 1 2 8 -4 14 -12 14 -13 0 -15 -20 -15 -123 0
-106 -2 -125 -18 -136 -9 -7 -17 -18 -17 -23 0 -14 42 -41 76 -48 16 -4 44
-13 62 -21 18 -9 51 -18 75 -22 41 -8 42 -7 59 31 11 23 15 49 12 67 -6 29 29
120 45 120 14 0 30 47 20 57 -7 7 -5 12 6 17 9 3 13 2 10 -4 -10 -16 18 -12
44 6 18 13 28 14 48 5 13 -6 28 -9 33 -6 14 9 68 -25 73 -47 3 -11 4 -35 1
-52 -5 -29 -5 -30 10 -12 9 11 19 16 23 13 4 -4 2 -12 -4 -18 -6 -6 -9 -18 -6
-25 4 -12 -5 -13 -49 -8 -43 5 -56 3 -67 -10 -7 -9 -19 -16 -27 -16 -24 0 -45
-30 -34 -50 7 -13 5 -21 -5 -30 -15 -13 -14 -27 8 -80 6 -14 10 -28 9 -32 -1
-5 2 -8 8 -8 12 0 1 -61 -13 -75 -7 -7 -8 -6 -3 2 5 9 2 11 -9 7 -34 -14 -8
-39 75 -73 98 -40 209 -49 295 -26 28 8 68 14 89 15 22 0 36 3 33 7 -4 3 10
17 31 29 20 13 33 24 27 24 -29 1 26 20 60 20 30 0 36 3 25 10 -11 7 -1 10 35
11 28 1 60 0 71 0 13 -1 23 5 26 16 3 12 21 24 47 31 36 11 41 16 41 42 0 16
-4 32 -10 35 -15 9 -12 45 3 45 8 0 20 12 28 28 8 15 18 30 23 33 12 9 -2 29
-17 23 -7 -2 -17 8 -23 25 -12 30 -5 35 24 18 7 -5 14 -2 18 7 3 9 15 16 25
16 18 0 19 10 19 154 l0 155 -31 -9 c-31 -9 -31 -9 -14 10 24 26 14 35 -24 22
-29 -10 -30 -10 -18 9 10 16 9 21 -3 29 -8 5 -23 7 -32 4 -35 -11 -55 5 -62
46 -6 41 -28 54 -40 25 -6 -17 -51 -20 -61 -5 -7 11 -25 4 -25 -10 0 -5 7 -7
15 -4 9 4 18 -1 21 -11 11 -27 -51 -72 -92 -67 -19 2 -34 8 -34 13 0 5 4 9 10
9 5 0 7 7 4 15 -6 15 17 45 35 45 6 0 11 5 11 11 0 7 -14 8 -40 4 -21 -4 -49
-4 -61 0 -18 6 -20 12 -15 43 5 27 4 33 -4 21 -12 -20 -47 -43 -79 -54 -16 -5
-21 -4 -17 4 4 6 15 11 25 11 21 0 61 52 61 80 0 29 -14 24 -27 -10 -6 -16
-15 -30 -20 -29 -4 0 -21 16 -37 36 -25 29 -28 38 -18 54 7 10 12 21 12 24 0
10 -25 4 -42 -9z m146 -285 c3 -4 -11 -5 -30 -3 -19 2 -34 7 -34 11 0 9 59 1
64 -8z m-324 -22 c0 -6 -4 -7 -10 -4 -5 3 -10 11 -10 16 0 6 5 7 10 4 6 -3 10
-11 10 -16z m20 -60 c12 -16 19 -33 16 -36 -3 -4 -6 -2 -6 4 0 6 -12 22 -26
37 -15 14 -22 26 -16 26 6 0 20 -14 32 -31z m165 -207 c-3 -3 -11 0 -18 7 -9
10 -8 11 6 5 10 -3 15 -9 12 -12z m-152 -7 c-3 -9 -8 -14 -10 -11 -3 3 -2 9 2
15 9 16 15 13 8 -4z m148 -52 c13 -16 12 -17 -3 -4 -10 7 -18 15 -18 17 0 8 8
3 21 -13z m-133 -7 c-7 -8 -16 -12 -21 -9 -11 7 2 23 19 23 12 0 12 -2 2 -14z
m-18 -71 c7 -9 8 -15 2 -15 -5 0 -12 7 -16 15 -3 8 -4 15 -2 15 2 0 9 -7 16
-15z"/>
<path d="M946 1161 c-3 -5 1 -14 9 -21 12 -10 18 -10 30 0 13 11 13 15 3 21
-17 11 -35 11 -42 0z"/>
<path d="M874 1094 c-4 -16 -11 -35 -17 -41 -6 -9 -6 -13 2 -13 17 0 41 54 31
70 -6 10 -10 6 -16 -16z"/>
<path d="M1045 1110 c-3 -5 1 -10 10 -10 9 0 13 5 10 10 -3 6 -8 10 -10 10 -2
0 -7 -4 -10 -10z"/>
<path d="M810 1074 c0 -16 5 -24 13 -21 6 2 12 10 12 18 0 8 5 17 10 21 6 4 0
8 -12 8 -18 0 -23 -6 -23 -26z"/>
<path d="M785 1040 c-3 -5 -1 -10 4 -10 6 0 11 5 11 10 0 6 -2 10 -4 10 -3 0
-8 -4 -11 -10z"/>
<path d="M120 1015 c-11 -13 -11 -18 2 -31 14 -14 16 -14 20 4 8 30 -6 47 -22
27z"/>
<path d="M1456 444 c-4 -10 -1 -14 6 -12 15 5 23 28 10 28 -5 0 -13 -7 -16
-16z"/>
<path d="M17 119 c-12 -7 -17 -23 -17 -59 0 -45 3 -50 25 -56 36 -9 75 19 75
54 0 33 -8 45 -37 61 -26 13 -23 13 -46 0z"/>
</g>
</svg>
